#!OML:ASF X:\für Bonn\!DataBase\2005_08_12_Daniel\c3d\Daniel.ASF
:FULLY-SPECIFIED
:DEGREES
35
root 19.8376 20.4381 0.938706 331.452 80.8315 339.31
lowerback 9.50618 -1.13839 3.93703
upperback 2.32339 -1.0997 -0.860523
thorax -3.00423 -0.546226 -2.97993
lowerneck 3.34478 3.99163 -5.57058
upperneck 9.52175 5.48487 0.106164
head 2.28523 2.63331 1.02224
rclavicle -2.21396e-014 -2.50469e-014
rhumerus -69.39 24.2665 -93.0332
rradius 99.0946
rwrist 2.78112
rhand -16.0824 21.6691
rfingers 7.12502
rthumb 10.1207 -8.06751
lclavicle -2.21396e-014 -2.50469e-014
lhumerus 113.514 194.664 254.743
lradius 111.691
lwrist 19.7257
lhand 5.35034 -5.44435
lfingers 7.12502
lthumb 30.7041 22.0131
rfemur -2.26236 1.61805 25.7431
rtibia 49.9805
rfoot 29.6238 0.765987
rtoes -18.8728
lfemur -5.77047 0.816509 -17.1782
ltibia 61.5155
lfoot 20.7587 -3.47623
ltoes -8.68803
36
root 20.0296 20.5251 0.935872 331.368 80.8293 339.98
lowerback 10.567 -1.16112 3.70653
upperback 2.82418 -1.09789 -0.926568
thorax -3.0661 -0.527526 -2.91089
lowerneck 2.78505 3.93748 -5.45798
upperneck 10.1844 5.48062 0.0552236
head 2.61023 2.62039 1.01785
rclavicle -2.43511e-015 1.59028e-015
rhumerus -68.6134 24.7733 -92.1766
rradius 99.2291
rwrist 2.12377
rhand -15.7545 21.3307
rfingers 7.12502
rthumb 10.4369 -8.39028
lclavicle -2.43511e-015 1.59028e-015
lhumerus 114.615 195.6 253.735
lradius 112.499
lwrist 19.8878
lhand 4.66125 -5.37212
lfingers 7.12502
lthumb 30.0468 22.2067
rfemur -2.1062 0.597141 25.6665
rtibia 50.5097
rfoot 28.8458 -0.512875
rtoes -18.3981
lfemur -5.36229 1.46323 -16.985
ltibia 61.6135
lfoot 20.9529 -3.56854
ltoes -8.89536
37
root 20.2198 20.6027 0.932992 331.38 80.829 340.658
lowerback 11.561 -1.15607 3.51923
upperback 3.29997 -1.05983 -1.02401
thorax -3.11199 -0.49069 -2.90534
lowerneck 2.58923 3.88891 -5.41298
upperneck 10.4924 5.43833 0.0892698
head 2.75084 2.59593 1.03329
rclavicle 1.17034e-014 -5.56597e-015
rhumerus -67.7474 25.1479 -91.3826
rradius 99.1214
rwrist 1.59362
rhand -15.5247 21.2769
rfingers 7.12502
rthumb 10.6586 -8.4328
lclavicle 1.17034e-014 -5.56597e-015
lhumerus 115.762 196.667 252.792
lradius 113.157
lwrist 19.9809
lhand 3.91281 -5.42392
lfingers 7.12502
lthumb 29.3325 22.2822
rfemur -2.00692 -0.447204 25.5439
rtibia 50.7802
rfoot 28.2133 -1.86369
rtoes -17.0219
lfemur -5.08344 2.10866 -16.7903
ltibia 61.664
lfoot 21.0804 -3.73235
ltoes -8.99132
38
root 20.4067 20.6687 0.929105 331.399 80.813 341.217
lowerback 12.5015 -1.14344 3.3451
upperback 3.6934 -1.01386 -1.08526
thorax -3.20994 -0.45282 -2.8719
lowerneck 2.68284 3.85277 -5.50469
upperneck 10.5788 5.38145 0.181259
head 2.76045 2.56652 1.07699
rclavicle -2.5842e-014 -7.55382e-015
rhumerus -66.8009 25.5213 -90.6554
rradius 98.8684
rwrist 1.17916
rhand -15.267 21.2691
rfingers 7.12502
rthumb 10.9072 -8.42759
lclavicle -2.5842e-014 -7.55382e-015
lhumerus 116.816 197.732 251.983
lradius 113.714
lwrist 19.8882
lhand 3.29177 -5.47576
lfingers 7.12502
lthumb 28.7393 22.3325
rfemur -2.02126 -1.53874 25.3965
rtibia 50.816
rfoot 27.68 -3.01493
rtoes -15.3978
lfemur -4.978 2.77919 -16.5511
ltibia 61.6905
lfoot 21.0784 -3.91252
ltoes -8.77156
39
root 20.5866 20.7228 0.924264 331.515 80.7972 341.658
lowerback 13.3169 -1.11427 3.20652
upperback 3.98962 -0.950648 -1.14369
thorax -3.33769 -0.409986 -2.86022
lowerneck 2.85178 3.81176 -5.63847
upperneck 10.6461 5.30987 0.311969
head 2.74876 2.53038 1.13768
rclavicle -5.61567e-015 -9.54166e-015
rhumerus -65.6525 25.7509 -89.9771
rradius 98.4719
rwrist 1.07035
rhand -14.9296 21.1551
rfingers 7.12502
rthumb 11.2326 -8.52416
lclavicle -5.61567e-015 -9.54166e-015
lhumerus 117.797 198.869 251.239
lradius 114.188
lwrist 19.6693
lhand 2.86498 -5.58577
lfingers 7.12502
lthumb 28.3315 22.291
rfemur -2.28507 -2.59965 25.2709
rtibia 50.6588
rfoot 27.0664 -3.8714
rtoes -14.1218
lfemur -5.17562 3.45701 -16.3017
ltibia 61.7194
lfoot 20.8109 -4.18349
ltoes -8.59642
40
root 20.7586 20.7632 0.918436 331.719 80.7756 342.073
lowerback 14.1095 -1.08381 3.07728
upperback 4.22301 -0.888374 -1.19406
thorax -3.51665 -0.370221 -2.84665
lowerneck 3.02263 3.77737 -5.76816
upperneck 10.7586 5.25028 0.43248
head 2.75237 2.49964 1.19566
rclavicle -9.88954e-015 -1.74931e-014
rhumerus -64.3728 25.9064 -89.3448
rradius 98.0514
rwrist 1.16737
rhand -14.4886 20.8048
rfingers 7.12502
rthumb 11.6579 -8.85087
lclavicle -9.88954e-015 -1.74931e-014
lhumerus 118.892 200.094 250.564
lradius 114.398
lwrist 19.2741
lhand 2.60875 -5.58857
lfingers 7.12502
lthumb 28.0866 22.3286
rfemur -2.68421 -3.53527 25.1872
rtibia 50.3267
rfoot 26.3255 -4.74373
rtoes -12.8847
lfemur -5.55116 4.12551 -16.0626
ltibia 61.7389
lfoot 20.2972 -4.50343
ltoes -8.82499
41
root 20.9247 20.792 0.912028 331.854 80.7417 342.311
lowerback 14.8271 -1.04775 3.01031
upperback 4.44421 -0.814223 -1.24441
thorax -3.66562 -0.324513 -2.87233
lowerneck 3.16406 3.73946 -5.94629
upperneck 10.8259 5.18238 0.576249
head 2.7449 2.46365 1.26939
rclavicle -8.49804e-015 7.95139e-016
rhumerus -62.9621 25.9767 -88.7376
rradius 97.6106
rwrist 1.57355
rhand -14.0035 20.2274
rfingers 7.12502
rthumb 12.1257 -9.40121
lclavicle -8.49804e-015 7.95139e-016
lhumerus 120.191 201.44 249.892
lradius 114.386
lwrist 18.8792
lhand 2.52042 -5.54712
lfingers 7.12502
lthumb 28.0022 22.3839
rfemur -3.19126 -4.24335 25.2187
rtibia 49.8448
rfoot 25.4071 -5.79642
rtoes -11.5848
lfemur -6.07069 4.79898 -15.7987
ltibia 61.7161
lfoot 19.7072 -4.8252
ltoes -9.39953
42
root 21.0864 20.8142 0.904407 332.078 80.7273 342.61
lowerback 15.5842 -1.0243 2.91709
upperback 4.62728 -0.760567 -1.28221
thorax -3.87502 -0.290729 -2.86748
lowerneck 3.34938 3.71601 -6.16367
upperneck 10.8522 5.12756 0.731806
head 2.71449 2.43377 1.35179
rclavicle -1.6201e-014 -1.66979e-014
rhumerus -61.5412 26.0757 -88.1601
rradius 97.2004
rwrist 2.0872
rhand -13.5038 19.4459
rfingers 7.12502
rthumb 12.6075 -10.1537
lclavicle -1.6201e-014 -1.66979e-014
lhumerus 121.497 202.712 249.267
lradius 114.327
lwrist 18.2837
lhand 2.61447 -5.40876
lfingers 7.12502
lthumb 28.0921 22.5075
rfemur -3.72485 -4.82067 25.2829
rtibia 49.2249
rfoot 24.5734 -6.37537
rtoes -11.113
lfemur -6.70773 5.40998 -15.5855
ltibia 61.6155
lfoot 19.1187 -5.05817
ltoes -9.96854
